# AST/ASF file generated using VICON BodyLanguage
# -----------------------------------------------
:version 1.10
:name VICON
:units
  mass 1.0
  length 0.45
  angle deg
:documentation
   .ast/.asf automatically generated from VICON data using
   VICON BodyBuilder and BodyLanguage model FoxedUp or BRILLIANT.MOD
:root
   order TX TY TZ RX RY RZ
   axis XYZ
   position 0 0 0  
   orientation 0 0 0 
:bonedata
  begin
     id 1 
     name lhipjoint
     direction 0.528046 -0.759594 0.379717 
     length 2.39752 
     axis 0 0 0  XYZ
  end
  begin
     id 2 
     name lfemur
     direction 0.34202 -0.939693 0  
     length 7.31175  
     axis 0 0 20  XYZ
    dof rx ry rz
    limits (-160.0 20.0)
           (-70.0 70.0)
           (-60.0 70.0)
  end
  begin
     id 3 
     name ltibia
     direction 0.34202 -0.939693 0   
     length 7.52482   
     axis 0 0 20   XYZ
    dof rx
    limits (-10.0 170.0)
  end
  begin
     id 4 
     name lfoot
     direction 0.0675379 -0.185559 0.980309   
     length 2.00961   
     axis -90 7.62852e-016 20   XYZ
    dof rx rz
    limits (-45.0 90.0)
           (-70.0 20.0)
  end
  begin
     id 5 
     name ltoes
     direction 1.5352e-011 -4.22286e-011 1   
     length 1.01383   
     axis -90 7.62852e-016 20   XYZ
    dof rx
    limits (-90.0 20.0)
  end
  begin
     id 6 
     name rhipjoint
     direction -0.510274 -0.769251 0.384544   
     length 2.36742  
     axis 0 0 0  XYZ 
  end
  begin
     id 7 
     name rfemur
     direction -0.34202 -0.939693 0   
     length 7.45325   
     axis 0 0 -20   XYZ
    dof rx ry rz
    limits (-160.0 20.0)
           (-70.0 70.0)
           (-70.0 60.0)
  end
  begin
     id 8 
     name rtibia
     direction -0.34202 -0.939693 0   
     length 7.49587   
     axis 0 0 -20   XYZ
    dof rx
    limits (-10.0 170.0)
 end
 begin
     id 9 
     name rfoot
     direction -0.106475 -0.292536 0.950308   
     length 2.20898  
     axis -90 -7.62852e-016 -20   XYZ
    dof rx rz
    limits (-45.0 90.0)
           (-20.0 70.0)
  end
  begin
     id 10 
     name rtoes
     direction -1.53597e-011 -4.22023e-011 1   
     length 1.10065   
     axis -90 -7.62852e-016 -20   XYZ
    dof rx
    limits (-90.0 20.0)
  end
  begin
     id 11 
     name lowerback
     direction 0.0260024 0.998026 -0.0571652   
     length 2.11214   
     axis 0 0 0   XYZ
    dof rx ry rz
    limits (-20.0 45.0)
           (-30.0 30.0)
           (-30.0 30.0)
  end
  begin
     id 12 
     name upperback
     direction 0.0216202 0.999542 -0.0211766   
     length 2.11689   
     axis 0 0 0   XYZ
    dof rx ry rz
    limits (-20.0 45.0)
           (-30.0 30.0)
           (-30.0 30.0)
  end
  begin
     id 13 
     name thorax
     direction 0.00883312 0.999944 0.00589057   
     length 2.11821   
     axis 0 0 0   XYZ
    dof rx ry rz
    limits (-20.0 45.0)
           (-30.0 30.0)
           (-30.0 30.0)
  end
  begin
     id 14 
     name lowerneck
     direction -0.059386 0.994433 0.0870401   
     length 1.81176   
     axis 0 0 0   XYZ
    dof rx ry rz
    limits (-20.0 45.0)
           (-30.0 30.0)
           (-30.0 30.0)
  end
  begin
     id 15 
     name upperneck
     direction 0.0506457 0.97328 -0.223967   
     length 1.82382   
     axis 0 0 0   XYZ
    dof rx ry rz
    limits (-20.0 45.0)
           (-30.0 30.0)
           (-30.0 30.0)
  end
  begin
     id 16
     name head
     direction 0.0205902 0.996147 -0.0852487  
     length 1.84805  
     axis 0 0 0   XYZ
    dof rx ry rz
    limits (-20.0 45.0)
           (-30.0 30.0)
           (-30.0 30.0)
  end
  begin
     id 17 
     name lclavicle
     direction 0.949493 0.303881 -0.0782325  
     length 3.60584  
     axis 0 0 0   XYZ
    dof ry rz
    limits (-20.0 10.0)
           (0.0 20.0)
  end
  begin
     id 18 
     name lhumerus
     direction 1 -4.48965e-011 1.48782e-027   
     length 4.95681   
     axis 180 -30 -90   XYZ
    dof rx ry rz
    limits (-60.0 90.0)
           (-90.0 90.0)
           (-90.0 90.0)
  end
  begin
     id 19
     name lradius
     direction 1 -4.48952e-011 2.06528e-027   
     length 3.40915   
     axis 180 -30 -90   XYZ
    dof rx
    limits (-10.0 170.0)
  end
  begin
     id 20
     name lwrist
     direction 1 -4.48964e-011 1.28021e-027   
     length 1.70457   
     axis -1.61767e-015 90 90   XYZ
    dof ry
    limits (-180.0 0.0)
 end
  begin
     id 21 
     name lhand
     direction 1 -4.49094e-011 2.54887e-027   
     length 0.616403   
     axis -1.63363e-015 90 90   XYZ
    dof rx rz
    limits (-90.0 90.0)
           (-45.0 45.0)
  end
  begin
     id 22 
     name lfingers
     direction 1 -4.49002e-011 5.11407e-027   
     length 0.49696   
     axis -3.26723e-015 90 90   XYZ
    dof rx
    limits (0.0 90.0)
  end
  begin
     id 23
     name lthumb
     direction 0.707107 -6.34998e-011 0.707107   
     length 0.713539   
     axis -90 45 -2.25915e-014   XYZ
    dof rx rz
    limits (-45.0 45.0)
           (-45.0 45.0)
  end
  begin
     id 24 
     name rclavicle
     direction -0.937751 0.334612 -0.0930482   
     length 3.46287  
     axis 0 0 0   XYZ 
    dof ry rz
    limits (-10.0 20.0)
           (-20.0 0.0)
  end
  begin
     id 25 
     name rhumerus
     direction -1 -4.48962e-011 3.59972e-027  
     length 5.352   
     axis 180 30 90   XYZ
    dof rx ry rz
    limits (-90.0 60.0)
           (-90.0 90.0)
           (-90.0 90.0)
  end
  begin
     id 26 
     name rradius
     direction -1 -4.48987e-011 -3.76925e-027   
     length 3.43721   
     axis 180 30 90   XYZ
    dof rx
    limits (-10.0 170.0)
  end
  begin
     id 27 
     name rwrist
     direction -1 -4.48943e-011 1.28112e-027   
     length 1.7186   
     axis -1.61767e-015 -90 -90   XYZ
    dof ry
    limits (-180.0 0.0)
  end
  begin
     id 28
     name rhand
     direction -1 -4.49027e-011 2.55483e-027   
     length 0.72009   
     axis -1.63363e-015 -90 -90   XYZ
    dof rx rz
    limits (-90.0 90.0)
           (-45.0 45.0)
  end
  begin
     id 29
     name rfingers
     direction -1 -4.48827e-011 5.14506e-027   
     length 0.580555   
     axis -3.26723e-015 -90 -90   XYZ
    dof rx
    limits (0.0 90.0)
  end
  begin
     id 30
     name rthumb
     direction -0.707107 -6.34936e-011 0.707107   
     length 0.833564   
     axis -90 -45 2.25915e-014   XYZ
    dof rx rz
    limits (-45.0 45.0)
           (-45.0 45.0)
  end
:hierarchy
  begin
    root lhipjoint rhipjoint lowerback
    lhipjoint lfemur
    lfemur ltibia
    ltibia lfoot
    lfoot ltoes
    rhipjoint rfemur
    rfemur rtibia
    rtibia rfoot
    rfoot rtoes
    lowerback upperback
    upperback thorax
    thorax lowerneck lclavicle rclavicle
    lowerneck upperneck
    upperneck head
    lclavicle lhumerus
    lhumerus lradius
    lradius lwrist
    lwrist lhand lthumb
    lhand lfingers
    rclavicle rhumerus
    rhumerus rradius
    rradius rwrist
    rwrist rhand rthumb
    rhand rfingers
  end

#!OML:ASF H:\Terrain\Patient Classification 1\Terrain2\Thursday\justin.ASF
:FULLY-SPECIFIED
:DEGREES
135
root 20.1262 20.2482 -10.7875 2.24328 5.40057 -2.04966
lowerback 4.06297 1.74201 0.577975
upperback 0.972704 2.35847 0.881463
thorax -1.29149 1.17703 0.459272
lowerneck -12.4852 -2.15001 -9.9033
upperneck 37.3879 -1.18533 2.81502
head 15.3051 -1.468 2.77436
rclavicle -2.34069e-014 -1.11319e-014
rhumerus -28.9904 -4.60803 -84.8772
rradius 32.1739
rwrist -10.3178
rhand -18.2192 10.6043
rfingers 7.12502
rthumb 8.0588 -19.2221
lclavicle -2.34069e-014 -1.11319e-014
lhumerus -35.2053 6.29016 84.0365
lradius 26.7786
lwrist 0.822913
lhand -18.914 19.9227
lfingers 7.12502
lthumb 7.38818 49.7737
rfemur -18.7463 -5.5219 22.0645
rtibia 52.7244
rfoot -23.9789 -3.44383
rtoes 11.8734
lfemur -11.2778 2.60356 -20.5149
ltibia 36.097
lfoot -23.0319 -13.4554
ltoes 12.7829
136
root 20.1287 20.2513 -10.7797 2.22801 5.41428 -1.80629
lowerback 4.09152 1.70891 0.279263
upperback 1.07799 2.29982 0.790786
thorax -1.20722 1.1485 0.537476
lowerneck -12.4685 -2.07368 -9.7855
upperneck 37.3088 -1.08996 2.76561
head 15.2505 -1.41547 2.74583
rclavicle -2.20713e-014 -5.91384e-015
rhumerus -28.8371 -4.44578 -85.0116
rradius 32.6619
rwrist -10.4622
rhand -18.4038 10.9514
rfingers 7.12502
rthumb 7.88057 -18.8817
lclavicle -2.20713e-014 -5.91384e-015
lhumerus -35.1273 6.12932 84.076
lradius 26.8523
lwrist 1.00493
lhand -18.776 19.4299
lfingers 7.12502
lthumb 7.52135 49.2761
rfemur -19.4153 -5.63607 21.7845
rtibia 53.7815
rfoot -24.004 -3.49731
rtoes 11.4111
lfemur -11.0437 2.73211 -20.7297
ltibia 35.8019
lfoot -23.0354 -13.6889
ltoes 13.2396
137
root 20.1334 20.257 -10.7651 2.10836 5.38033 -1.52025
lowerback 4.14723 1.66685 -0.00836767
upperback 1.26462 2.22951 0.694022
thorax -1.0535 1.11357 0.604582
lowerneck -12.5533 -1.9921 -9.72327
upperneck 37.2584 -0.958818 2.71702
head 15.2329 -1.35655 2.73415
rclavicle -1.86205e-014 -1.6847e-014
rhumerus -28.5682 -4.19689 -85.1738
rradius 32.9267
rwrist -10.8421
rhand -18.287 10.9401
rfingers 7.12502
rthumb 7.99334 -18.8888
lclavicle -1.86205e-014 -1.6847e-014
lhumerus -35.015 6.13379 84.0989
lradius 27.0043
lwrist 0.997163
lhand -19.1554 18.9854
lfingers 7.12502
lthumb 7.15518 48.8444
rfemur -20.0067 -5.69135 21.4057
rtibia 54.8613
rfoot -24.1909 -3.19613
rtoes 12.1171
lfemur -10.6564 2.93818 -20.9973
ltibia 35.4424
lfoot -22.9569 -13.9298
ltoes 13.7769
138
root 20.1418 20.2594 -10.744 1.98334 5.35694 -1.22999
lowerback 4.20504 1.59993 -0.226111
upperback 1.36887 2.12915 0.547709
thorax -0.980095 1.06332 0.581763
lowerneck -12.6246 -1.86264 -9.6362
upperneck 37.403 -0.814258 2.80793
head 15.3048 -1.27596 2.78502
rclavicle 7.0522e-015 1.84e-014
rhumerus -28.4359 -4.10873 -85.3971
rradius 33.0596
rwrist -11.0941
rhand -18.2276 10.8694
rfingers 7.12502
rthumb 8.05067 -18.9573
lclavicle 7.0522e-015 1.84e-014
lhumerus -35.1084 6.08241 84.0304
lradius 27.2287
lwrist 1.02473
lhand -19.6953 19.0125
lfingers 7.12502
lthumb 6.63401 48.8886
rfemur -20.6306 -6.00771 21.0404
rtibia 55.9233
rfoot -24.2457 -3.25745
rtoes 10.686
lfemur -10.1963 3.17663 -21.2938
ltibia 35.022
lfoot -22.9835 -14.2275
ltoes 13.3416
139
root 20.1497 20.2602 -10.7238 1.96372 5.43689 -0.911589
lowerback 4.25686 1.48326 -0.577682
upperback 1.32775 1.95808 0.46245
thorax -1.0578 0.978183 0.697608
lowerneck -12.5501 -1.75822 -9.6397
upperneck 37.6457 -0.649023 2.77657
head 15.3934 -1.21938 2.80497
rclavicle -1.65224e-014 2.67614e-014
rhumerus -28.4466 -3.82566 -85.553
rradius 33.1629
rwrist -11.294
rhand -18.2849 10.5088
rfingers 7.12502
rthumb 7.99541 -19.32
lclavicle -1.65224e-014 2.67614e-014
lhumerus -35.3401 6.14927 83.9567
lradius 27.2881
lwrist 1.07058
lhand -19.4694 20.4617
lfingers 7.12502
lthumb 6.852 50.3309
rfemur -21.343 -6.73843 20.7997
rtibia 56.9469
rfoot -24.0851 -4.69659
rtoes 3.89779
lfemur -9.8547 3.34919 -21.6214
ltibia 34.5826
lfoot -22.8507 -14.4736
ltoes 12.7747
140
root 20.1528 20.2637 -10.7082 1.94599 5.55398 -0.658081
lowerback 4.35865 1.39271 -0.923814
upperback 1.29575 1.82167 0.432637
thorax -1.15485 0.910726 0.864743
lowerneck -12.4589 -1.71977 -9.70539
upperneck 37.7996 -0.52137 2.62647
head 15.4411 -1.20056 2.7762
rclavicle -3.96451e-014 6.32384e-015
rhumerus -28.4678 -3.53793 -85.5882
rradius 33.4103
rwrist -11.4679
rhand -18.4505 11.0066
rfingers 7.12502
rthumb 7.83558 -18.8282
lclavicle -3.96451e-014 6.32384e-015
lhumerus -35.4363 6.05296 84.0872
lradius 27.0191
lwrist 1.93694
lhand -20.167 20.1807
lfingers 7.12502
lthumb 6.17861 50.0706
rfemur -22.0502 -7.21972 20.6475
rtibia 57.8537
rfoot -24.0621 -5.84291
rtoes 0.0359593
lfemur -9.56534 3.58039 -21.8423
ltibia 34.19
lfoot -22.5444 -14.8357
ltoes 13.4288
141
root 20.1541 20.272 -10.6918 1.86258 5.70322 -0.526461
lowerback 4.49185 1.31578 -1.0811
upperback 1.35257 1.7106 0.391723
thorax -1.17174 0.855225 0.914502
lowerneck -12.4664 -1.67072 -9.77013
upperneck 37.8586 -0.437304 2.65753
head 15.4659 -1.17231 2.81622
rclavicle 5.75388e-016 -1.11816e-014
rhumerus -28.4516 -3.5034 -85.6406
rradius 33.786
rwrist -11.6338
rhand -18.9797 12.8724
rfingers 7.12502
rthumb 7.32474 -16.9809
lclavicle 5.75388e-016 -1.11816e-014
lhumerus -35.3965 5.86575 84.2181
lradius 26.7637
lwrist 2.70804
lhand -21.1799 18.9281
lfingers 7.12502
lthumb 5.20064 48.8443
rfemur -22.7121 -7.48201 20.5272
rtibia 58.5694
rfoot -24.271 -5.97262
rtoes 0.76272
lfemur -9.24496 3.71812 -21.9252
ltibia 33.8767
lfoot -22.3455 -15.3031
ltoes 14.5388
142
root 20.1555 20.2789 -10.674 1.82051 5.79124 -0.445416
lowerback 4.54705 1.2474 -1.16982
upperback 1.50108 1.61491 0.347096
thorax -1.04896 0.80613 0.924576
lowerneck -12.7007 -1.64097 -9.8135
upperneck 37.9035 -0.376574 2.7242
head 15.539 -1.14616 2.86497
rclavicle 2.42987e-014 1.86236e-014
rhumerus -28.2526 -3.47605 -85.7762
rradius 34.1321
rwrist -11.943
rhand -19.1445 13.1943
rfingers 7.12502
rthumb 7.16567 -16.6643
lclavicle 2.42987e-014 1.86236e-014
lhumerus -35.2021 6.16532 84.0088
lradius 26.8332
lwrist 1.6549
lhand -19.9752 20.1319
lfingers 7.12502
lthumb 6.36379 50.0163
rfemur -23.4696 -7.73421 20.4616
rtibia 59.1013
rfoot -24.2954 -5.98271
rtoes 1.43849
lfemur -9.01659 3.72784 -21.9885
ltibia 33.6394
lfoot -22.097 -15.62
ltoes 15.4405
143
root 20.1599 20.2819 -10.6577 1.80583 5.66959 -0.499303
lowerback 4.64686 1.27241 -1.07462
upperback 1.61547 1.65112 0.302684
thorax -0.984244 0.823465 0.823049
lowerneck -12.9199 -1.64937 -9.73532
upperneck 37.8929 -0.364323 2.66468
head 15.5844 -1.13817 2.82828
rclavicle 1.40764e-014 2.19781e-014
rhumerus -28.0794 -3.49019 -85.9059
rradius 34.4095
rwrist -12.2371
rhand -18.9218 12.2877
rfingers 7.12502
rthumb 7.3806 -17.5636
lclavicle 1.40764e-014 2.19781e-014
lhumerus -35.0551 6.45831 83.7821
lradius 27.0027
lwrist 0.598249
lhand -18.5759 21.0106
lfingers 7.12502
lthumb 7.71453 50.8499
rfemur -24.2766 -7.88349 20.5724
rtibia 59.4759
rfoot -24.1258 -6.14178
rtoes 0.843258
lfemur -8.85611 3.74819 -21.9508
ltibia 33.464
lfoot -21.8559 -15.6484
ltoes 15.9495
144
root 20.1674 20.2849 -10.6388 1.7087 5.50293 -0.688014
lowerback 4.84875 1.32603 -0.806941
upperback 1.62562 1.73237 0.271187
thorax -1.07948 0.864679 0.631566
lowerneck -12.8194 -1.63267 -9.53534
upperneck 37.8295 -0.38965 2.60277
head 15.5271 -1.12658 2.75969
rclavicle 2.67676e-014 2.88238e-015
rhumerus -28.2147 -3.60927 -85.9959
rradius 34.8039
rwrist -12.2477
rhand -19.052 12.5034
rfingers 7.12502
rthumb 7.25492 -17.3522
lclavicle 2.67676e-014 2.88238e-015
lhumerus -35.1701 6.2561 83.7978
lradius 27.1604
lwrist 0.818943
lhand -18.4793 21.4836
lfingers 7.12502
lthumb 7.80776 51.3195
rfemur -24.9586 -8.00856 20.8171
rtibia 59.7239
rfoot -24.0815 -6.42703
rtoes 0.161037
lfemur -8.61924 3.80948 -21.7728
ltibia 33.3282
lfoot -21.9297 -15.4472
ltoes 15.5669
145
root 20.1717 20.2891 -10.6142 1.63202 5.44344 -0.719691
lowerback 4.91805 1.28758 -0.814851
upperback 1.64031 1.68035 0.278068
thorax -1.10257 0.838719 0.644614
lowerneck -12.7356 -1.55026 -9.45836
upperneck 37.9018 -0.290734 2.58404
head 15.5332 -1.07927 2.75549
rclavicle -1.52816e-014 1.43125e-014
rhumerus -28.323 -3.49396 -86.0851
rradius 35.1189
rwrist -12.2102
rhand -19.4517 13.1842
rfingers 7.12502
rthumb 6.86911 -16.6844
lclavicle -1.52816e-014 1.43125e-014
lhumerus -35.3109 6.07242 83.8918
lradius 27.2216
lwrist 1.2452
lhand -18.7888 22.3957
lfingers 7.12502
lthumb 7.50901 52.2424
rfemur -25.6002 -8.1447 20.8938
rtibia 59.8579
rfoot -24.1039 -6.6834
rtoes 0.815929
lfemur -8.35916 3.88303 -21.7318
ltibia 33.2051
lfoot -22.125 -15.3311
ltoes 15.3478
146
root 20.1714 20.2913 -10.5854 1.65538 5.46883 -0.632672
lowerback 4.89201 1.20039 -1.02557
upperback 1.63918 1.55492 0.307209
thorax -1.0933 0.775865 0.800446
lowerneck -12.697 -1.43551 -9.48382
upperneck 38.0258 -0.0890951 2.52439
head 15.5705 -1.01075 2.77007
rclavicle -4.15708e-014 -3.52843e-015
rhumerus -28.3034 -3.16515 -86.173
rradius 35.1728
rwrist -12.4209
rhand -19.6817 13.5404
rfingers 7.12502
rthumb 6.64712 -16.3353
lclavicle -4.15708e-014 -3.52843e-015
lhumerus -35.4182 6.16246 83.9
lradius 27.1363
lwrist 1.23294
lhand -18.9109 22.4783
lfingers 7.12502
lthumb 7.39119 52.3292
rfemur -26.3089 -8.4145 20.8948
rtibia 59.8667
rfoot -24.0564 -7.04286
rtoes 1.22868
lfemur -8.15598 4.04414 -21.7752
ltibia 33.0655
lfoot -22.4371 -15.4429
ltoes 15.047
147
root 20.1687 20.2922 -10.5592 1.6461 5.55354 -0.602676
lowerback 4.98908 1.13098 -1.19584
upperback 1.61565 1.4538 0.351607
thorax -1.17464 0.72577 0.945029
lowerneck -12.5152 -1.37516 -9.60236
upperneck 37.9948 -0.0136337 2.59702
head 15.5055 -0.985093 2.83238
rclavicle -2.57488e-015 -7.52897e-015
rhumerus -28.3436 -2.92806 -86.1876
rradius 35.217
rwrist -12.538
rhand -19.4282 13.726
rfingers 7.12502
rthumb 6.89182 -16.1418
lclavicle -2.57488e-015 -7.52897e-015
lhumerus -35.4662 6.22819 83.9224
lradius 26.987
lwrist 1.04923
lhand -18.6197 22.1881
lfingers 7.12502
lthumb 7.67227 52.0289
rfemur -26.9845 -8.79174 20.9859
rtibia 59.732
rfoot -23.9895 -7.46964
rtoes 1.59238
lfemur -7.93771 4.2008 -21.742
ltibia 32.8935
lfoot -22.586 -15.7215
ltoes 14.6085
148
root 20.1678 20.2947 -10.5365 1.54186 5.67526 -0.687934
lowerback 5.15487 1.0425 -1.23012
upperback 1.62668 1.33356 0.428452
thorax -1.25525 0.666095 1.04739
lowerneck -12.3436 -1.33218 -9.80584
upperneck 37.9719 0.00565639 2.81303
head 15.4506 -0.976357 2.9625
rclavicle -9.98893e-015 9.59136e-015
rhumerus -28.4601 -2.6702 -86.168
rradius 35.3402
rwrist -12.5429
rhand -19.1276 13.95
rfingers 7.12502
rthumb 7.18197 -15.9082
lclavicle -9.98893e-015 9.59136e-015
lhumerus -35.474 6.26137 83.9796
lradius 26.8185
lwrist 1.02841
lhand -18.5686 21.6161
lfingers 7.12502
lthumb 7.72151 51.4552
rfemur -27.5214 -9.17439 21.1873
rtibia 59.4528
rfoot -23.8559 -7.77863
rtoes 1.58994
lfemur -7.65647 4.20502 -21.5986
ltibia 32.7138
lfoot -22.2917 -16.1094
ltoes 14.9757
